    <svg width={size} height={size} viewBox="0 0 40 40" fill="none" xmlns="http://www.w3.org/2000/svg">
        <rect width="40" height="40" rx="4" fill="#ECECEC" />
        <path d="M14 19V25C14 25 16 27 20 27C24 27 26 25 26 25V19" stroke="black" strokeWidth="1.5" />
        <path d="M28.5 24.5L27.0647 27.8435C26.8369 28.374 27.2391 29 27.8286 29H29.1714C29.7609 29 30.1631 28.374 29.9353 27.8435L28.5 24.5ZM28.5 24.5V17.5" stroke="black" strokeWidth="1.5" strokeLinecap="round" strokeLinejoin="round" />
        <path d="M19.88 11.0088C16.9949 11.4275 12.6241 13.8845 10.4627 15.1882C9.84576 15.5603 9.84576 16.4397 10.4627 16.8118C12.6241 18.1155 16.9949 20.5725 19.88 20.9912C19.961 21.0029 20.039 21.0029 20.12 20.9912C23.0051 20.5725 27.3759 18.1155 29.5373 16.8118C30.1542 16.4397 30.1542 15.5603 29.5373 15.1882C27.3759 13.8845 23.0051 11.4275 20.12 11.0088C20.039 10.9971 19.961 10.9971 19.88 11.0088Z" stroke="black" strokeWidth="1.5" strokeLinecap="round" strokeLinejoin="round" />
    </svg>