  <svg width="40" height="40" viewBox="0 0 40 40" fill="none" xmlns="http://www.w3.org/2000/svg">
    <rect width="40" height="40" rx="4" fill="#ECECEC" />
    <path d="M10 29.9984V19.9961" stroke="black" strokeWidth="1.5" strokeLinecap="round" strokeLinejoin="round" />
    <path d="M30 29.9984V19.9961" stroke="black" strokeWidth="1.5" strokeLinecap="round" strokeLinejoin="round" />
    <path d="M20 29.9977V28.998M20 25.9967V24.9971" stroke="black" strokeWidth="1.5" strokeLinecap="round" strokeLinejoin="round" />
    <path d="M14.5 15L13.2929 16.2071C13.1054 16.3946 13 16.649 13 16.9142V19.6529C13 20.1417 13.3535 20.5568 13.8384 20.6186C14.1501 20.6583 14.5414 20.7041 15 20.75M14.5 15L15.5724 11.4253C15.8262 10.5793 16.6048 10 17.4881 10H22.5119C23.3952 10 24.1738 10.5793 24.4276 11.4253L25.5 15M14.5 15H25.5M14.5 15L13.5 14M15 20.75C16.25 20.875 18 21 20 21C22 21 23.75 20.875 25 20.75M15 20.75V22.5M25.5 15L26.7071 16.2071C26.8946 16.3946 27 16.649 27 16.9142V19.6529C27 20.1417 26.6465 20.5568 26.1616 20.6186C25.8499 20.6583 25.4586 20.7041 25 20.75M25.5 15L26.5 14M25 20.75V22.5M14.5 17.5L13.5 17M25.5 17.5L26.5 17M18.5 18.5H21.5" stroke="black" strokeWidth="1.5" strokeLinecap="round" strokeLinejoin="round" />
  </svg>