  <svg width={size} height={size} viewBox="0 0 40 40" fill="none" xmlns="http://www.w3.org/2000/svg">
    <rect width="40" height="40" rx="4" fill="#ECECEC" />
    <path d="M11.25 25.0002H15.927C15.5475 24.7106 15.2017 24.3766 14.8895 23.9982C14.5773 23.6201 14.3168 23.2041 14.1077 22.7502H11.25V25.0002ZM20 25.0002C21.3833 25.0002 22.5625 24.5127 23.5375 23.5377C24.5125 22.5627 25 21.3836 25 20.0002C25 18.6169 24.5125 17.4377 23.5375 16.4627C22.5625 15.4877 21.3833 15.0002 20 15.0002C18.6167 15.0002 17.4375 15.4877 16.4625 16.4627C15.4875 17.4377 15 18.6169 15 20.0002C15 21.3836 15.4875 22.5627 16.4625 23.5377C17.4375 24.5127 18.6167 25.0002 20 25.0002ZM25.8923 17.2502H28.75V15.0002H24.073C24.4525 15.2899 24.7983 15.6239 25.1105 16.0022C25.4227 16.3804 25.6833 16.7964 25.8923 17.2502ZM9.75 27.3847V20.3657H11.25V21.2502H13.6423C13.5898 21.0451 13.5529 20.8409 13.5318 20.6377C13.5106 20.4346 13.5 20.2221 13.5 20.0002C13.5 18.1896 14.1307 16.6536 15.392 15.3922C16.6533 14.1309 18.1893 13.5002 20 13.5002H28.75V12.6157H30.25V19.6347H28.75V18.7502H26.3577C26.4102 18.9554 26.4471 19.1596 26.4683 19.3627C26.4894 19.5659 26.5 19.7784 26.5 20.0002C26.5 21.8109 25.8693 23.3469 24.608 24.6082C23.3467 25.8696 21.8107 26.5002 20 26.5002H11.25V27.3847H9.75ZM20 22.606C19.5142 22.606 19.101 22.4358 18.7605 22.0955C18.4202 21.755 18.25 21.3418 18.25 20.856C18.25 20.5303 18.3196 20.2041 18.4588 19.8772C18.5978 19.5502 18.857 19.0945 19.2365 18.51L19.9905 17.3945L20.7537 18.51C21.1436 19.1071 21.4071 19.5656 21.5443 19.8855C21.6814 20.2055 21.75 20.529 21.75 20.856C21.75 21.3418 21.5798 21.755 21.2395 22.0955C20.899 22.4358 20.4858 22.606 20 22.606Z" fill="#1F1F1F" />
  </svg>